<svg width="1200" height="630" viewBox="0 0 1200 630" xmlns="http://www.w3.org/2000/svg">
  <defs>
    <linearGradient id="bgGradient" x1="0%" y1="0%" x2="100%" y2="100%">
      <stop offset="0%" style="stop-color:#1a1a2e;stop-opacity:1" />
      <stop offset="100%" style="stop-color:#16213e;stop-opacity:1" />
    </linearGradient>
    <linearGradient id="accentGradient" x1="0%" y1="0%" x2="100%" y2="100%">
      <stop offset="0%" style="stop-color:#FF6B35;stop-opacity:1" />
      <stop offset="50%" style="stop-color:#F7931E;stop-opacity:1" />
      <stop offset="100%" style="stop-color:#FFC837;stop-opacity:1" />
    </linearGradient>
  </defs>
  
  <!-- Background -->
  <rect width="1200" height="630" fill="url(#bgGradient)"/>
  
  <!-- Grid pattern -->
  <g opacity="0.1">
    <line x1="0" y1="157.5" x2="1200" y2="157.5" stroke="#fff" stroke-width="1"/>
    <line x1="0" y1="315" x2="1200" y2="315" stroke="#fff" stroke-width="1"/>
    <line x1="0" y1="472.5" x2="1200" y2="472.5" stroke="#fff" stroke-width="1"/>
    <line x1="300" y1="0" x2="300" y2="630" stroke="#fff" stroke-width="1"/>
    <line x1="600" y1="0" x2="600" y2="630" stroke="#fff" stroke-width="1"/>
    <line x1="900" y1="0" x2="900" y2="630" stroke="#fff" stroke-width="1"/>
  </g>
  
  <!-- Decorative circles -->
  <circle cx="950" cy="120" r="80" fill="url(#accentGradient)" opacity="0.15"/>
  <circle cx="1050" cy="500" r="120" fill="url(#accentGradient)" opacity="0.1"/>
  <circle cx="150" cy="550" r="60" fill="url(#accentGradient)" opacity="0.15"/>
  
  <!-- Phoenix logo -->
  <g transform="translate(150, 150)">
    <ellipse cx="0" cy="10" rx="35" ry="50" fill="url(#accentGradient)"/>
    <path d="M -35 0 Q -80 -25, -95 -55 Q -88 -35, -75 -20 Q -60 -5, -35 5 Z" 
          fill="url(#accentGradient)" opacity="0.9"/>
    <path d="M 35 0 Q 80 -25, 95 -55 Q 88 -35, 75 -20 Q 60 -5, 35 5 Z" 
          fill="url(#accentGradient)" opacity="0.9"/>
    <circle cx="0" cy="-28" r="22" fill="url(#accentGradient)"/>
    <path d="M -7 -45 Q -11 -58, -8 -67 M 0 -48 Q 0 -62, 3 -70 M 7 -45 Q 11 -58, 8 -67" 
          stroke="#FF6B35" stroke-width="3" fill="none" stroke-linecap="round"/>
  </g>
  
  <!-- Title -->
  <text x="350" y="240" font-family="Arial, sans-serif" font-size="72" font-weight="bold" fill="#fff">
    Phoenix
  </text>
  
  <!-- Subtitle -->
  <text x="350" y="310" font-family="Arial, sans-serif" font-size="36" fill="#b8b8b8">
    Senior Software Engineer
  </text>
  
  <!-- Description -->
  <text x="350" y="380" font-family="Arial, sans-serif" font-size="28" fill="#888">
    Building scalable systems and
  </text>
  <text x="350" y="420" font-family="Arial, sans-serif" font-size="28" fill="#888">
    exceptional user experiences
  </text>
  
  <!-- Decorative line -->
  <rect x="350" y="450" width="150" height="4" fill="url(#accentGradient)" rx="2"/>
  
  <!-- Tech stack icons (simplified) -->
  <g transform="translate(350, 510)">
    <rect x="0" y="0" width="60" height="60" rx="8" fill="#3178c6" opacity="0.2"/>
    <text x="30" y="42" font-family="monospace" font-size="28" font-weight="bold" fill="#3178c6" text-anchor="middle">TS</text>
    
    <rect x="80" y="0" width="60" height="60" rx="8" fill="#61dafb" opacity="0.2"/>
    <text x="110" y="42" font-family="monospace" font-size="28" font-weight="bold" fill="#61dafb" text-anchor="middle">⚛</text>
    
    <rect x="160" y="0" width="60" height="60" rx="8" fill="#68a063" opacity="0.2"/>
    <text x="190" y="42" font-family="monospace" font-size="28" font-weight="bold" fill="#68a063" text-anchor="middle">JS</text>
    
    <rect x="240" y="0" width="60" height="60" rx="8" fill="url(#accentGradient)" opacity="0.2"/>
    <text x="270" y="42" font-family="monospace" font-size="28" font-weight="bold" fill="#FFC837" text-anchor="middle">+</text>
  </g>
</svg>

